HIERARCHY
ROOT root     
{
	OFFSET 0.0000 0.0000 0.0000
	CHANNELS 6 Xposition Yposition Zposition Zrotation Yrotation Xrotation
	JOINT pelvis   
	{
		OFFSET 0.0000 0.0000 0.0000
		CHANNELS 3 Zrotation Yrotation Xrotation
		JOINT thorax   
		{
			OFFSET 0.0000 23.0750 -5.0000
			CHANNELS 3 Zrotation Yrotation Xrotation
			JOINT rclavicle
			{
				OFFSET 0.0000 28.0009 0.0000
				CHANNELS 3 Zrotation Yrotation Xrotation
				JOINT rhumerus 
				{
					OFFSET -18.5725 5.5939 0.0000
					CHANNELS 3 Zrotation Yrotation Xrotation
					JOINT rradius  
					{
						OFFSET -24.8459 0.0000 0.0000
						CHANNELS 3 Zrotation Yrotation Xrotation
						JOINT rhand    
						{
							OFFSET -24.5477 0.0000 0.0000
							CHANNELS 3 Zrotation Yrotation Xrotation
							End Site
							{
								OFFSET -8.1826 0.0000 0.0000
							}
						}
					}
				}
			}
			JOINT lclavicle
			{
				OFFSET 0.0000 28.0009 0.0000
				CHANNELS 3 Zrotation Yrotation Xrotation
				JOINT lhumerus 
				{
					OFFSET 18.5725 5.5939 0.0000
					CHANNELS 3 Zrotation Yrotation Xrotation
					JOINT lradius  
					{
						OFFSET 24.8459 0.0000 0.0000
						CHANNELS 3 Zrotation Yrotation Xrotation
						JOINT lhand    
						{
							OFFSET 24.5477 0.0000 0.0000
							CHANNELS 3 Zrotation Yrotation Xrotation
							End Site
							{
								OFFSET 8.1826 0.0000 0.0000
							}
						}
					}
				}
			}
			JOINT head     
			{
				OFFSET 0.0000 35.2030 0.0000
				CHANNELS 3 Zrotation Yrotation Xrotation
				End Site
				{
					OFFSET 0.0000 11.7343 0.0000
				}
			}
		}
		JOINT rfemur   
		{
			OFFSET -8.2817 0.0000 0.0000
			CHANNELS 3 Zrotation Yrotation Xrotation
			JOINT rtibia   
			{
				OFFSET 0.0000 -43.3627 0.0000
				CHANNELS 3 Zrotation Yrotation Xrotation
				JOINT rfoot    
				{
					OFFSET 0.0000 -38.2947 0.0000
					CHANNELS 3 Zrotation Yrotation Xrotation
					JOINT rtoes    
					{
						OFFSET 0.0000 0.0000 16.6054
						CHANNELS 3 Zrotation Yrotation Xrotation
						End Site
						{
							OFFSET 0.0000 0.0000 5.5351
						}
					}
				}
			}
		}
		JOINT lfemur   
		{
			OFFSET 8.2817 0.0000 0.0000
			CHANNELS 3 Zrotation Yrotation Xrotation
			JOINT ltibia   
			{
				OFFSET 0.0000 -43.3627 0.0000
				CHANNELS 3 Zrotation Yrotation Xrotation
				JOINT lfoot    
				{
					OFFSET 0.0000 -38.2947 0.0000
					CHANNELS 3 Zrotation Yrotation Xrotation
					JOINT ltoes    
					{
						OFFSET 0.0000 0.0000 16.6054
						CHANNELS 3 Zrotation Yrotation Xrotation
						End Site
						{
							OFFSET 0.0000 0.0000 5.5351
						}
					}
				}
			}
		}
	}
}
MOTION
Frames: 17
Frame Time: .0333333
151.07 83.464 24.671 -164.098 -86.5114 -170.822 0 -0 0 11.1558 -13.3074 -10.1272 26.4781 -9.35179 -3.69663e-06 40.9099 4.74839 -21.564 -0 75.4243 -0 -3.36162 4.59623 -0.134897 -23.5729 10.8343 -8.61958e-05 -36.4246 -2.58127 -0.212912 -180 -84.2182 180 6.98839 -2.53633 -0.154901 -5.94332 1.47242 -19.4673 2.79695 -1.56401 -44.5829 -0 -0 34.6683 9.84304e-08 2.74051 -0.381194 -0.0182002 -5.39016e-08 -35.9399 3.03442 12.9089 -0.703404 -0 -0 23.9203 9.84087e-06 1.21294 26.1659 0.534898 -3.3494e-06 -86.7894 
150 83.296 24.414 -162.025 -86.6515 -172.966 0 -0 0 11.5923 -13.3455 -10.3244 26.4925 -9.23724 -8.0467e-05 40.8258 5.38548 -22.2823 -9.60561e-07 74.412 -1.26523e-06 -4.41609 4.68931 -0.180901 -23.6637 10.8448 3.90076e-05 -36.3372 -2.57705 -0.188191 180 -84.4102 -180 6.75741 -2.66226 -0.157199 -6.80385 1.43102 -19.3617 2.8333 -1.24641 -44.3015 -0 -0 35.9872 -7.76735e-07 2.43393 -1.69271 -0.0719 -7.6287e-07 -34.048 3.46562 12.7993 -0.684002 -0 -0 24.9449 -1.11195e-06 1.08971 27.0144 0.495008 2.73507e-06 -85.6949 
148.94 83.165 24.147 -159.176 -86.7984 -175.883 0 -0 0 12.0384 -13.3783 -10.5077 26.5059 -9.10518 -7.53177e-05 40.8283 6.05357 -22.9809 -1.25519e-06 73.3112 -1.68666e-06 -5.48543 4.79591 -0.229903 -23.7756 10.8604 -3.17842e-06 -36.2974 -2.59141 -0.134095 -180 -84.7487 180 6.53112 -2.77952 -0.158603 -7.65607 1.37871 -19.2265 2.90924 -0.880618 -43.8835 -0 -0 36.9981 -1.02177e-06 1.97331 -2.93273 -0.101 -1.06324e-06 -32.9035 3.93074 12.7243 -0.756911 -0 -0 26.0543 -2.61247e-06 1.02439 27.973 0.480498 1.4576e-07 -84.1674 
147.88 83.068 23.873 -155.694 -86.9621 -179.429 0 -0 0 12.4738 -13.4124 -10.6864 26.5204 -8.96285 -2.87228e-05 40.9218 6.74102 -23.6593 -0 72.1441 -0 -6.55293 4.91163 -0.281304 -23.8979 10.8792 -8.20823e-05 -36.3036 -2.62677 -0.0427893 -180 -85.2339 180 6.31666 -2.88842 -0.159404 -8.4901 1.30872 -19.0562 3.01211 -0.48746 -43.3359 -0 -0 37.6915 -1.13168e-06 1.38185 -4.06854 -0.0981006 -4.51594e-07 -32.4215 4.40702 12.6611 -0.927387 -0 -0 27.236 7.26994e-06 1.04401 29.0177 0.506397 7.92286e-07 -82.0894 
146.84 83.006 23.598 -151.683 -87.1402 176.496 0 -0 0 12.8776 -13.4561 -10.8664 26.5341 -8.81679 -9.00531e-05 41.1118 7.43222 -24.315 -7.57986e-07 70.9276 -1.06407e-06 -7.60578 5.03004 -0.334596 -24.022 10.8956 3.68441e-05 -36.3506 -2.68296 0.0921854 -180 -85.8827 180 6.12156 -2.99217 -0.160001 -9.29803 1.21356 -18.8477 3.12836 -0.0897245 -42.6642 -0 -0 38.0811 -3.43421e-07 0.691201 -5.07964 -0.0611998 7.686e-07 -32.427 4.87249 12.5829 -1.19441 -0 -0 28.4781 -6.64859e-06 1.1695 30.1029 0.586604 -4.89948e-06 -79.398 
145.79 82.975 23.323 -147.109 -87.3526 171.861 0 -0 0 13.2379 -13.5148 -11.0513 26.543 -8.6706 4.70849e-05 41.3975 8.10774 -24.9461 -7.02705e-07 69.6903 -1.00936e-06 -8.63687 5.14246 -0.388603 -24.1447 10.903 -6.06437e-05 -36.4348 -2.75871 0.274887 -180 -86.6891 180 5.95393 -3.09682 -0.161098 -10.077 1.08625 -18.5963 3.24724 0.294976 -41.8806 -0 -0 38.1937 3.87343e-08 -0.0651002 -5.95434 0.00679999 -4.8455e-08 -32.7052 5.31252 12.4693 -1.55196 -0 -0 29.7656 1.98755e-05 1.41384 31.1749 0.732 -3.59772e-06 -76.1571 
144.75 82.973 23.055 -141.845 -87.6057 166.535 0 -0 0 13.5383 -13.5884 -11.2448 26.5486 -8.53033 5.5769e-06 41.7724 8.75257 -25.5459 -0 68.4498 -0 -9.64219 5.24074 -0.442296 -24.2576 10.8962 3.34614e-05 -36.5501 -2.85349 0.508902 -180 -87.6721 180 5.82131 -3.21034 -0.163302 -10.8263 0.921029 -18.3004 3.35449 0.646996 -40.9965 -0 -0 38.0695 1.13836e-07 -0.848998 -6.6906 0.0989009 8.45686e-09 -33.0428 5.70659 12.2963 -1.99413 -0 -0 31.0821 -2.08013e-05 1.78467 32.165 0.950298 3.72342e-06 -72.4685 
143.72 82.997 22.797 -135.614 -87.9075 160.244 0 -0 0 13.7598 -13.6785 -11.4487 26.5487 -8.40341 -4.73282e-05 42.2333 9.36016 -26.1048 -0 67.2167 -0 -10.6192 5.31892 -0.494691 -24.3597 10.8738 -3.26038e-05 -36.6836 -2.96955 0.795806 180 -88.8289 -180 5.72891 -3.34009 -0.167196 -11.5467 0.714248 -17.9595 3.43404 0.945801 -40.0311 -0 -0 37.7584 -2.22092e-06 -1.62125 -7.2964 0.206002 5.62851e-07 -33.2592 6.03303 12.0474 -2.51566 -0 -0 32.4169 1.40606e-05 2.27725 33.0038 1.24078 -4.49589e-06 -68.3947 
142.68 83.043 22.552 -127.572 -88.2664 152.145 0 -0 0 13.8968 -13.7826 -11.6616 26.5412 -8.29123 5.15666e-05 42.7675 9.91797 -26.6099 -0 66.0105 -0 -11.5685 5.37137 -0.544487 -24.4494 10.832 1.42059e-05 -36.8274 -3.10353 1.1318 0.0004432 -89.7945 -0.000443233 5.67862 -3.49279 -0.1733 -12.2446 0.465324 -17.5752 3.47847 1.18091 -38.9984 -0 -0 37.3058 2.24472e-06 -2.35241 -7.78299 0.318703 -1.0349e-06 -33.2388 6.28147 11.7155 -3.10733 -0 -0 33.7542 -1.14929e-05 2.88237 33.6374 1.5976 1.37632e-05 -64.2325 
141.65 83.11 22.323 -115.881 -88.6084 140.382 0 -0 0 13.9458 -13.8925 -11.8796 26.5255 -8.19449 -8.27876e-05 43.3583 10.4219 -27.0486 -8.47258e-07 64.8277 -5.37972e-07 -12.4891 5.39636 -0.590915 -24.5316 10.7702 -7.56917e-06 -36.9713 -3.25357 1.50999 -8.22944e-06 -88.3841 8.00295e-06 5.66847 -3.67111 -0.181798 -12.9288 0.176473 -17.1517 3.48335 1.34491 -37.9132 -0 -0 36.7517 -3.36994e-06 -3.01926 -8.16626 0.429305 3.71918e-06 -32.9363 6.44466 11.299 -3.76062 -0 -0 35.0814 -1.66906e-05 3.58576 34.0301 2.00852 1.61684e-05 -60.2567 
140.62 83.195 22.111 -96.523 -88.9668 120.963 0 -0 0 13.9069 -14.0021 -12.0981 26.4967 -8.11225 -2.76755e-05 43.9954 10.8705 -27.4058 -0 63.6727 -0 -13.3734 5.39596 -0.633091 -24.6089 10.6915 0.000100569 -37.1035 -3.41895 1.9212 7.4129e-06 -86.7931 -7.83995e-06 5.69316 -3.87352 -0.192698 -13.6113 -0.145983 -16.6959 3.44805 1.43481 -36.7895 -0 -0 36.1309 -5.46272e-06 -3.60735 -8.46493 0.531697 -4.05815e-06 -32.3653 6.52101 10.814 -4.469 -0 -0 36.3943 -4.36374e-06 4.36032 34.1407 2.45032 5.22538e-07 -56.5098 
139.6 83.299 21.917 -64.4687 -89.0827 88.8411 0 -0 0 13.7872 -14.1017 -12.3079 26.4595 -8.04101 1.75206e-05 44.654 11.2651 -27.6615 -7.91315e-07 62.5425 -4.80583e-07 -14.2161 5.37308 -0.670483 -24.6909 10.5959 4.25987e-05 -37.2138 -3.59193 2.3501 3.34668e-06 -85.0574 -3.64879e-06 5.74273 -4.09353 -0.205399 -14.3008 -0.492965 -16.2137 3.37597 1.45309 -35.6329 -0 -0 35.4637 -1.9339e-06 -4.11154 -8.6962 0.62269 4.6625e-06 -31.5859 6.51093 10.2691 -5.2167 -0 -0 37.6644 -1.62164e-05 5.20905 34.0025 2.91866 -2.18893e-05 -53.5963 
138.65 83.447 21.657 -17.1775 -88.0027 41.7592 0 -0 0 14.38 -14.9736 -13.0737 26.2798 -7.97948 -1.42162e-05 45.3257 11.5856 -27.782 -6.44783e-07 61.4306 -1.08529e-06 -14.9989 5.33619 -0.703001 -24.914 10.5163 -2.07457e-05 -37.2841 -3.76 2.802 1.19738e-06 -83.1984 -1.34859e-06 5.80619 -4.31914 -0.219101 -15.1433 -0.837776 -15.6893 3.80003 0.682608 -34.6298 -0 -0 34.5227 -1.83126e-06 -4.696 -8.80562 0.720507 -2.76762e-06 -30.5636 6.94916 8.91559 -6.75657 -0 -0 39.3843 1.18368e-05 5.95515 33.4531 3.29109 -4.55799e-05 -51.0587 
137.63 83.58 21.494 -6.1701 -87.6106 30.675 0 -0 0 14.1183 -15.0277 -13.2454 26.22 -7.9221 -5.55755e-05 45.9836 11.8938 -27.7874 -7.45357e-07 60.3164 -4.33082e-07 -15.7093 5.29173 -0.730519 -25.0143 10.4007 1.02863e-05 -37.3359 -3.93256 3.2185 -1.50654e-06 -81.2556 1.29248e-06 5.86545 -4.53536 -0.2325 -15.8783 -1.19792 -15.18 3.67251 0.576777 -33.4339 -0 -0 33.7882 4.78867e-06 -5.04192 -8.93602 0.785111 2.50658e-06 -29.661 6.7901 8.33733 -7.55984 -0 -0 40.544 -2.09853e-05 6.8885 32.8129 3.74565 -4.40902e-05 -49.5355 
136.6 83.728 21.344 1.96165 -87.1883 22.4548 0 -0 0 13.7947 -15.0476 -13.374 26.1445 -7.85441 1.61599e-05 46.6308 12.1616 -27.659 -5.82338e-07 59.1983 -1.02513e-06 -16.3109 5.25549 -0.753673 -25.1323 10.2953 4.26196e-05 -37.3472 -4.12006 3.61009 5.38151e-07 -79.2112 -1.12388e-06 5.91075 -4.72424 -0.244001 -16.6402 -1.54453 -14.6722 3.52825 0.423811 -32.2106 -0 -0 33.0133 -3.52954e-06 -5.31686 -9.02905 0.836693 2.3505e-06 -28.8419 6.5701 7.80287 -8.36586 -0 -0 41.6407 7.25209e-05 7.83132 31.9196 4.15922 -2.19592e-05 -48.3295 
135.58 83.887 21.206 8.16232 -86.7823 16.1468 0 -0 0 13.4168 -15.0268 -13.4484 26.0545 -7.76764 -2.27785e-05 47.2549 12.3908 -27.3881 -5.54046e-07 58.0727 -9.9805e-07 -16.7836 5.23438 -0.772719 -25.2684 10.2069 -6.66557e-05 -37.3175 -4.32199 3.9617 8.41882e-07 -77.0907 -1.05669e-06 5.92882 -4.86829 -0.252302 -17.4304 -1.86429 -14.1726 3.37228 0.23509 -30.952 -0 -0 32.1902 1.01829e-05 -5.52821 -9.07815 0.874891 -7.5619e-06 -28.2119 6.29597 7.33152 -9.15523 -0 -0 42.6389 9.53228e-05 8.78971 30.8425 4.53241 1.97178e-05 -47.7204 
134.55 84.058 21.074 13.0383 -86.4198 11.1482 0 -0 0 13.0016 -14.9554 -13.4745 25.9595 -7.67661 -3.90829e-05 47.8339 12.6128 -26.9503 -0 56.9236 -0 -17.1066 5.23016 -0.787113 -25.4222 10.1257 1.93368e-05 -37.2497 -4.51133 4.24864 0 -74.9111 0 5.90509 -4.95277 -0.255603 -18.246 -2.14538 -13.6873 3.21674 0.0307971 -29.6673 -0 -0 31.3035 2.52354e-06 -5.68737 -9.06337 0.898806 2.05715e-06 -27.8602 5.98319 6.95109 -9.92806 -0 -0 43.5295 1.13014e-06 9.74962 29.6174 4.85379 1.81742e-06 -47.5317 
